<svg xmlns="http://www.w3.org/2000/svg" viewBox="0 0 64 64" role="img" aria-label="WhatsApp">
  <rect width="64" height="64" rx="14" fill="#25D366"/>
  <path fill="#fff" d="M32.1 11.2c-11.5 0-20.9 9.3-20.9 20.8 0 3.7 1 7.3 2.8 10.5L11 53.2l10.9-2.9c3.1 1.7 6.6 2.6 10.1 2.6h.1c11.5 0 20.9-9.3 20.9-20.8 0-5.6-2.2-10.8-6.1-14.8-4-3.9-9.2-6.1-14.8-6.1Zm0 37.9c-3.1 0-6.1-.8-8.7-2.4l-.6-.4-6.5 1.7 1.7-6.3-.4-.7c-1.7-2.7-2.6-5.8-2.6-9 0-9.4 7.7-17.1 17.1-17.1 4.6 0 8.8 1.8 12.1 5 3.2 3.2 5 7.5 5 12.1 0 9.4-7.7 17.1-17.1 17.1Z"/>
  <path fill="#fff" d="M41.5 36.3c-.5-.3-3.1-1.5-3.6-1.7-.5-.2-.9-.3-1.2.3-.4.5-1.4 1.7-1.7 2.1-.3.4-.6.4-1.1.1-.5-.3-2.2-.8-4.2-2.6-1.5-1.4-2.6-3.1-2.9-3.6-.3-.5 0-.8.2-1.1.3-.2.5-.6.8-.9.3-.3.4-.5.5-.9.2-.4.1-.7 0-1-.1-.3-1.2-2.9-1.7-4-.4-1-.9-.9-1.2-.9h-1c-.4 0-.9.1-1.4.7-.5.5-1.8 1.8-1.8 4.4s1.9 5.1 2.2 5.5c.3.4 3.8 5.8 9.2 8.1 1.3.6 2.3.9 3.1 1.1 1.3.4 2.5.3 3.4.2 1-.2 3.1-1.3 3.6-2.5.4-1.2.4-2.3.3-2.5-.2-.3-.5-.5-1-.8Z"/>
</svg>
